# xmcd CD database file
#
# Track frame offsets:
#	150
#	24233
#	44921
#	63965
#
# Disc length: 1170 seconds
#
# Revision: 0
# Processed by: cddbd v1.5.2PL0 Copyright (c) Steve Scherf et al.
# Submitted via: CD2WAV32(JP) R3.22
#
DISCID=2f049004
DTITLE=CHMISTRY - 約束の場所
DYEAR=2006
DGENRE=J-POP(J)
TTITLE0=約束の場所
TTITLE1=still in my heart
TTITLE2=YOUR WORLD
TTITLE3=約束の場所 [Less Vocal]
EXTD=
EXTT0=
EXTT1=
EXTT2=
EXTT3=
PLAYORDER=
